# AST/ASF file generated using VICON BodyLanguage
# -----------------------------------------------
:version 1.10
:name VICON
:units
  mass 1.0
  length 0.45
  angle deg
:documentation
   .ast/.asf automatically generated from VICON data using
   VICON BodyBuilder and BodyLanguage model FoxedUp or BRILLIANT.MOD
:root
   order TX TY TZ RX RY RZ
   axis XYZ
   position 0 0 0  
   orientation 0 0 0 
:bonedata
  begin
     id 1 
     name lhipjoint
     direction 0.682418 -0.694059 0.22932 
     length 2.25561 
     axis 0 0 0  XYZ
  end
  begin
     id 2 
     name lfemur
     direction 0.34202 -0.939693 0  
     length 6.96448  
     axis 0 0 20  XYZ
    dof rx ry rz
    limits (-160.0 20.0)
           (-70.0 70.0)
           (-60.0 70.0)
  end
  begin
     id 3 
     name ltibia
     direction 0.34202 -0.939693 0   
     length 6.88553   
     axis 0 0 20   XYZ
    dof rx
    limits (-10.0 170.0)
  end
  begin
     id 4 
     name lfoot
     direction 0.0723587 -0.198804 0.977364   
     length 1.88518   
     axis -90 7.62852e-016 20   XYZ
    dof rx rz
    limits (-45.0 90.0)
           (-70.0 20.0)
  end
  begin
     id 5 
     name ltoes
     direction 1.53558e-011 -4.21962e-011 1   
     length 0.952124   
     axis -90 7.62852e-016 20   XYZ
    dof rx
    limits (-90.0 20.0)
  end
  begin
     id 6 
     name rhipjoint
     direction -0.657603 -0.71533 0.236348   
     length 2.18854  
     axis 0 0 0  XYZ 
  end
  begin
     id 7 
     name rfemur
     direction -0.34202 -0.939693 0   
     length 6.86686   
     axis 0 0 -20   XYZ
    dof rx ry rz
    limits (-160.0 20.0)
           (-70.0 70.0)
           (-70.0 60.0)
  end
  begin
     id 8 
     name rtibia
     direction -0.34202 -0.939693 0   
     length 6.59503   
     axis 0 0 -20   XYZ
    dof rx
    limits (-10.0 170.0)
 end
 begin
     id 9 
     name rfoot
     direction -0.101977 -0.280179 0.954516   
     length 1.93723  
     axis -90 -7.62852e-016 -20   XYZ
    dof rx rz
    limits (-45.0 90.0)
           (-20.0 70.0)
  end
  begin
     id 10 
     name rtoes
     direction -1.53564e-011 -4.21897e-011 1   
     length 0.970315   
     axis -90 -7.62852e-016 -20   XYZ
    dof rx
    limits (-90.0 20.0)
  end
  begin
     id 11 
     name lowerback
     direction -0.0339559 0.999421 -0.00235966   
     length 1.88543   
     axis 0 0 0   XYZ
    dof rx ry rz
    limits (-20.0 45.0)
           (-30.0 30.0)
           (-30.0 30.0)
  end
  begin
     id 12 
     name upperback
     direction 0.00401003 0.999739 0.0224689   
     length 1.8856   
     axis 0 0 0   XYZ
    dof rx ry rz
    limits (-20.0 45.0)
           (-30.0 30.0)
           (-30.0 30.0)
  end
  begin
     id 13 
     name thorax
     direction 0.0198619 0.999546 0.0226536   
     length 1.88352   
     axis 0 0 0   XYZ
    dof rx ry rz
    limits (-20.0 45.0)
           (-30.0 30.0)
           (-30.0 30.0)
  end
  begin
     id 14 
     name lowerneck
     direction -0.0461848 0.998632 0.0245198   
     length 1.34895   
     axis 0 0 0   XYZ
    dof rx ry rz
    limits (-20.0 45.0)
           (-30.0 30.0)
           (-30.0 30.0)
  end
  begin
     id 15 
     name upperneck
     direction -0.0180627 0.994724 -0.100984   
     length 1.35214   
     axis 0 0 0   XYZ
    dof rx ry rz
    limits (-20.0 45.0)
           (-30.0 30.0)
           (-30.0 30.0)
  end
  begin
     id 16
     name head
     direction -0.00374772 0.999293 -0.037403  
     length 1.3568  
     axis 0 0 0   XYZ
    dof rx ry rz
    limits (-20.0 45.0)
           (-30.0 30.0)
           (-30.0 30.0)
  end
  begin
     id 17 
     name lclavicle
     direction 0.971773 0.191119 0.138311  
     length 2.84954  
     axis 0 0 0   XYZ
    dof ry rz
    limits (-20.0 10.0)
           (0.0 20.0)
  end
  begin
     id 18 
     name lhumerus
     direction 1 -4.4897e-011 -2.43761e-027   
     length 4.40919   
     axis 180 -30 -90   XYZ
    dof rx ry rz
    limits (-60.0 90.0)
           (-90.0 90.0)
           (-90.0 90.0)
  end
  begin
     id 19
     name lradius
     direction 1 -4.4896e-011 -9.1621e-027   
     length 3.03857   
     axis 180 -30 -90   XYZ
    dof rx
    limits (-10.0 170.0)
  end
  begin
     id 20
     name lwrist
     direction 1 -4.4896e-011 -1.41363e-026   
     length 1.51928   
     axis 1.07133e-014 90 90   XYZ
    dof ry
    limits (-180.0 0.0)
 end
  begin
     id 21 
     name lhand
     direction 1 -4.48978e-011 -2.82725e-026   
     length 0.523208   
     axis 1.80403e-014 90 90   XYZ
    dof rx rz
    limits (-90.0 90.0)
           (-45.0 45.0)
  end
  begin
     id 22 
     name lfingers
     direction 1 -4.48977e-011 -5.6545e-026   
     length 0.421824   
     axis 3.60806e-014 90 90   XYZ
    dof rx
    limits (0.0 90.0)
  end
  begin
     id 23
     name lthumb
     direction 0.707107 -6.34962e-011 0.707107   
     length 0.605657   
     axis -90 45 2.85299e-015   XYZ
    dof rx rz
    limits (-45.0 45.0)
           (-45.0 45.0)
  end
  begin
     id 24 
     name rclavicle
     direction -0.957247 0.24311 0.156766   
     length 3.12406  
     axis 0 0 0   XYZ 
    dof ry rz
    limits (-10.0 20.0)
           (-20.0 0.0)
  end
  begin
     id 25 
     name rhumerus
     direction -1 -4.48964e-011 -1.70632e-027  
     length 4.61969   
     axis 180 30 90   XYZ
    dof rx ry rz
    limits (-90.0 60.0)
           (-90.0 90.0)
           (-90.0 90.0)
  end
  begin
     id 26 
     name rradius
     direction -1 -4.48966e-011 -6.60395e-027   
     length 3.09382   
     axis 180 30 90   XYZ
    dof rx
    limits (-10.0 170.0)
  end
  begin
     id 27 
     name rwrist
     direction -1 -4.48963e-011 -1.41363e-026   
     length 1.54691   
     axis 1.07133e-014 -90 -90   XYZ
    dof ry
    limits (-180.0 0.0)
  end
  begin
     id 28
     name rhand
     direction -1 -4.49013e-011 -2.82725e-026   
     length 0.500896   
     axis 1.80403e-014 -90 -90   XYZ
    dof rx rz
    limits (-90.0 90.0)
           (-45.0 45.0)
  end
  begin
     id 29
     name rfingers
     direction -1 -4.48902e-011 -5.6545e-026   
     length 0.403835   
     axis 3.60806e-014 -90 -90   XYZ
    dof rx
    limits (0.0 90.0)
  end
  begin
     id 30
     name rthumb
     direction -0.707107 -6.34953e-011 0.707107   
     length 0.579829   
     axis -90 -45 -2.85299e-015   XYZ
    dof rx rz
    limits (-45.0 45.0)
           (-45.0 45.0)
  end
:hierarchy
  begin
    root lhipjoint rhipjoint lowerback
    lhipjoint lfemur
    lfemur ltibia
    ltibia lfoot
    lfoot ltoes
    rhipjoint rfemur
    rfemur rtibia
    rtibia rfoot
    rfoot rtoes
    lowerback upperback
    upperback thorax
    thorax lowerneck lclavicle rclavicle
    lowerneck upperneck
    upperneck head
    lclavicle lhumerus
    lhumerus lradius
    lradius lwrist
    lwrist lhand lthumb
    lhand lfingers
    rclavicle rhumerus
    rhumerus rradius
    rradius rwrist
    rwrist rhand rthumb
    rhand rfingers
  end

#!OML:ASF E:\madness\Project 1\Capture day 1\Session 1\Female1.ASF
:FULLY-SPECIFIED
:DEGREES
81
root -20.4335 15.9708 -1.45516 -0.929795 -74.5949 10.9514
lowerback -4.12223 0.926365 -2.38236
upperback -5.60386 1.15267 -0.0969036
thorax -3.51436 0.614108 1.24736
lowerneck 6.14431 10.4708 3.49912
upperneck 1.35895 14.1249 -7.86341
head 0.263385 7.13408 -3.24207
rclavicle -6.9351e-014 5.96354e-015
rhumerus -55.327 19.2101 -54.0148
rradius 51.9915
rwrist 9.94337
rhand -15.8168 -44.5901
rfingers 7.12502
rthumb 10.3769 -74.3141
lclavicle -6.9351e-014 5.96354e-015
lhumerus -57.0005 -17.1629 55.7161
lradius 86.3697
lwrist -28.7737
lhand -28.8973 -33.9753
lfingers 7.12502
lthumb -2.25249 -4.00745
rfemur -22.9982 2.86363 15.8898
rtibia 29.0282
rfoot -15.0919 -16.1873
rtoes 13.7721
lfemur -29.1685 -13.5514 -8.46036
ltibia 60.6953
lfoot -10.7676 3.61595
ltoes 23.1673
82
root -20.3938 15.9692 -1.42562 -1.84797 -75.0261 11.5984
lowerback -4.07273 0.920492 -2.52486
upperback -5.57987 1.14323 -0.202271
thorax -3.51805 0.612242 1.21778
lowerneck 6.05621 10.8304 3.45662
upperneck 1.61738 14.6139 -7.32888
head 0.345914 7.36938 -3.04056
rclavicle -1.21259e-014 -2.78299e-015
rhumerus -55.4586 19.0848 -53.5184
rradius 52.2847
rwrist 10.0104
rhand -16.1996 -44.2655
rfingers 7.12502
rthumb 10.0076 -74.0076
lclavicle -1.21259e-014 -2.78299e-015
lhumerus -56.7878 -17.4223 55.1109
lradius 86.1305
lwrist -28.6977
lhand -29.0516 -34.2986
lfingers 7.12502
lthumb -2.40158 -4.33235
rfemur -22.8569 3.21023 15.5885
rtibia 28.9684
rfoot -14.9422 -16.1665
rtoes 13.398
lfemur -28.0851 -13.4088 -8.36448
ltibia 60.7616
lfoot -10.5752 3.56051
ltoes 21.941
83
root -20.3611 15.9659 -1.39078 -2.71995 -75.4548 12.1632
lowerback -4.21122 0.971574 -2.43469
upperback -5.43507 1.21402 -0.405139
thorax -3.2848 0.637307 0.963005
lowerneck 5.91913 11.0904 3.73499
upperneck 1.8697 14.9906 -7.15495
head 0.480415 7.55293 -3.0055
rclavicle 1.6027e-014 9.74045e-015
rhumerus -55.5624 18.6221 -53.04
rradius 52.5385
rwrist 10.0676
rhand -16.2113 -44.0219
rfingers 7.12502
rthumb 9.99629 -73.7645
lclavicle 1.6027e-014 9.74045e-015
lhumerus -56.2109 -17.8375 54.4338
lradius 85.7629
lwrist -28.5744
lhand -29.3448 -34.4453
lfingers 7.12502
lthumb -2.68475 -4.48242
rfemur -22.6474 3.60391 15.3005
rtibia 28.9159
rfoot -14.6936 -16.1475
rtoes 12.8939
lfemur -26.8935 -13.2521 -8.26468
ltibia 60.7287
lfoot -10.201 3.2069
ltoes 21.7892
84
root -20.327 15.9674 -1.3558 -3.18839 -75.7727 12.4513
lowerback -4.15123 0.871463 -2.58155
upperback -5.59375 1.0745 -0.318154
thorax -3.48476 0.575759 1.13071
lowerneck 6.41343 11.4216 3.83278
upperneck 1.90117 15.4447 -7.10582
head 0.439228 7.78755 -3.03409
rclavicle 5.30258e-014 -1.98785e-016
rhumerus -55.825 18.8397 -52.4532
rradius 52.8739
rwrist 9.87926
rhand -16.4383 -43.9645
rfingers 7.12502
rthumb 9.77731 -73.7175
lclavicle 5.30258e-014 -1.98785e-016
lhumerus -56.2534 -18.06 54.1216
lradius 85.4144
lwrist -28.5867
lhand -29.2948 -34.737
lfingers 7.12502
lthumb -2.63641 -4.7735
rfemur -22.5778 3.77828 15.1085
rtibia 28.886
rfoot -14.4743 -16.0314
rtoes 11.9257
lfemur -25.8669 -13.278 -8.06065
ltibia 60.6209
lfoot -9.82497 2.85044
ltoes 21.6005
85
root -20.284 15.9689 -1.32064 -2.94173 -75.9896 12.2675
lowerback -4.34342 0.718237 -2.49657
upperback -5.75134 0.86395 -0.302588
thorax -3.53197 0.465938 1.09873
lowerneck 7.01376 11.7189 3.91726
upperneck 1.54395 15.8386 -7.02003
head 0.247397 7.99881 -3.0758
rclavicle 3.03395e-014 4.57205e-015
rhumerus -55.9186 18.8753 -51.9373
rradius 53.1196
rwrist 9.88543
rhand -16.7022 -43.9102
rfingers 7.12502
rthumb 9.52267 -73.675
lclavicle 3.03395e-014 4.57205e-015
lhumerus -56.0313 -18.1238 53.5756
lradius 84.9355
lwrist -28.7544
lhand -29.1638 -34.8887
lfingers 7.12502
lthumb -2.50989 -4.92368
rfemur -22.8707 3.86154 15.0235
rtibia 28.9799
rfoot -14.3048 -16.0122
rtoes 10.7245
lfemur -25.233 -13.3738 -7.66415
ltibia 60.4631
lfoot -9.71643 2.33713
ltoes 21.1174
86
root -20.2385 15.9586 -1.28101 -2.90571 -76.2285 12.282
lowerback -4.58768 0.555969 -2.36381
upperback -5.83899 0.642584 -0.36202
thorax -3.47526 0.346002 0.962794
lowerneck 7.09158 12.1075 4.11001
upperneck 1.66628 16.3788 -6.76335
head 0.300599 8.26779 -3.0191
rclavicle -4.13721e-015 1.45113e-014
rhumerus -55.8591 18.8543 -51.4943
rradius 53.2981
rwrist 9.92719
rhand -16.7635 -43.5129
rfingers 7.12502
rthumb 9.46358 -73.2805
lclavicle -4.13721e-015 1.45113e-014
lhumerus -55.7066 -18.1167 52.9363
lradius 84.4537
lwrist -28.812
lhand -29.164 -35.0102
lfingers 7.12502
lthumb -2.51014 -5.0452
rfemur -23.2252 3.96234 14.8552
rtibia 29.1014
rfoot -13.9168 -16.0405
rtoes 9.91147
lfemur -24.5643 -13.4132 -7.35864
ltibia 60.2602
lfoot -9.75255 1.56296
ltoes 21.5303
